<svg width="24" height="24" viewBox="0 0 24 24" fill="none" xmlns="http://www.w3.org/2000/svg">
<path d="M8.52083 5.63617C7.73978 4.85512 6.47345 4.85512 5.6924 5.63617C4.91135 6.41722 4.91135 7.68355 5.6924 8.4646L8.52083 5.63617ZM10.6246 13.3968C11.4056 14.1778 12.672 14.1778 13.453 13.3968C14.2341 12.6157 14.2341 11.3494 13.453 10.5684L10.6246 13.3968ZM18.4142 8.38656C19.1953 7.60552 19.1953 6.33919 18.4142 5.55814C17.6332 4.77709 16.3668 4.77709 15.5858 5.55814L18.4142 8.38656ZM5.6924 8.4646L10.6246 13.3968L13.453 10.5684L8.52083 5.63617L5.6924 8.4646ZM15.5858 5.55814L10.6536 10.4903L13.482 13.3188L18.4142 8.38656L15.5858 5.55814Z" fill="#111827"/>
<path d="M15.5858 18.3424C16.3668 19.1235 17.6332 19.1235 18.4142 18.3424C19.1953 17.5614 19.1953 16.2951 18.4142 15.514L15.5858 18.3424ZM13.482 10.5818C12.701 9.80076 11.4346 9.80076 10.6536 10.5818C9.87254 11.3629 9.87254 12.6292 10.6536 13.4102L13.482 10.5818ZM5.6924 15.592C4.91135 16.3731 4.91135 17.6394 5.6924 18.4205C6.47345 19.2015 7.73978 19.2015 8.52083 18.4205L5.6924 15.592ZM18.4142 15.514L13.482 10.5818L10.6536 13.4102L15.5858 18.3424L18.4142 15.514ZM8.52083 18.4205L13.453 13.4883L10.6246 10.6598L5.6924 15.592L8.52083 18.4205Z" fill="#111827"/>
</svg>
