<svg width="24" height="24" viewBox="0 0 24 24" fill="none" xmlns="http://www.w3.org/2000/svg">
<rect width="24" height="24" fill="#D9D9D9"/>
<path d="M19.4286 3.18751H15.1429L14.8071 2.49356C14.736 2.3452 14.6265 2.22041 14.4908 2.13321C14.3552 2.04602 14.1988 1.99989 14.0393 2.00001H9.95714C9.79799 1.99937 9.64189 2.04533 9.50672 2.13262C9.37154 2.21991 9.26277 2.345 9.19286 2.49356L8.85714 3.18751H4.57143C4.41988 3.18751 4.27453 3.25006 4.16737 3.36141C4.0602 3.47276 4 3.62378 4 3.78126V4.96876C4 5.12623 4.0602 5.27725 4.16737 5.3886C4.27453 5.49995 4.41988 5.56251 4.57143 5.56251H19.4286C19.5801 5.56251 19.7255 5.49995 19.8326 5.3886C19.9398 5.27725 20 5.12623 20 4.96876V3.78126C20 3.62378 19.9398 3.47276 19.8326 3.36141C19.7255 3.25006 19.5801 3.18751 19.4286 3.18751ZM5.9 19.3301C5.92725 19.7823 6.11934 20.2067 6.43716 20.517C6.75498 20.8272 7.17464 20.9999 7.61071 21H16.3893C16.8254 20.9999 17.245 20.8272 17.5628 20.517C17.8807 20.2067 18.0727 19.7823 18.1 19.3301L18.8571 6.75H5.14286L5.9 19.3301Z" fill="#A78347"/>
</svg>
