<svg width="24" height="24" viewBox="0 0 24 24" fill="none" xmlns="http://www.w3.org/2000/svg">
<path d="M20.3157 3C19.887 3 14.9738 3.24084 12 5.11115C9.02622 3.24084 4.113 3 3.68434 3C2.20416 3 1 4.27434 1 5.84072V17.4827C1 18.9941 2.11616 20.2399 3.541 20.3182C4.80531 20.3891 7.96884 20.6707 9.99422 21.754C10.2757 21.9043 10.5872 21.9874 10.8997 21.9981V22H13.1003V21.9981C13.4128 21.9874 13.7243 21.9043 14.0058 21.754C16.0312 20.6707 19.1947 20.3891 20.459 20.3182C21.8838 20.2399 23 18.9941 23 17.4827V5.84072C23 4.27434 21.7958 3 20.3157 3ZM11.175 19.2595C11.175 19.671 10.7983 19.9612 10.4418 19.8146C8.22356 18.904 5.14941 18.6245 3.62488 18.5388C3.07831 18.5091 2.65 18.0453 2.65 17.4827V5.84072C2.65 5.25662 3.11406 4.78125 3.68331 4.78125C4.36841 4.78496 8.03347 5.07107 10.5078 6.28381C10.9076 6.47975 11.1702 6.90205 11.1705 7.37631L11.175 11.3125V19.2595ZM21.35 17.4827C21.35 18.0453 20.9217 18.5091 20.3751 18.5392C18.8506 18.6245 15.7764 18.904 13.5582 19.815C13.2017 19.9612 12.825 19.6714 12.825 19.2598V11.3125L12.8298 7.37594C12.8305 6.90168 13.0928 6.47975 13.4926 6.28344C15.9669 5.07107 19.6319 4.78496 20.3167 4.78125C20.8859 4.78125 21.35 5.25662 21.35 5.84072V17.4827Z" fill="#A78347"/>
</svg>
