<svg width="24" height="24" viewBox="0 0 24 24" fill="none" xmlns="http://www.w3.org/2000/svg">
<path d="M19.4286 4.96875H16.4857L15.2714 2.86465C15.119 2.6007 14.9033 2.38231 14.6454 2.23077C14.3875 2.07923 14.0963 1.99973 13.8 2H10.2C9.90374 1.99973 9.61246 2.07923 9.35459 2.23077C9.09671 2.38231 8.88102 2.6007 8.72857 2.86465L7.51429 4.96875H4.57143C4.41988 4.96875 4.27453 5.03131 4.16737 5.14266C4.0602 5.25401 4 5.40503 4 5.5625V6.15625C4 6.31372 4.0602 6.46475 4.16737 6.5761C4.27453 6.68745 4.41988 6.75 4.57143 6.75H5.14286L5.9 19.3301C5.92725 19.7823 6.11934 20.2067 6.43716 20.517C6.75498 20.8272 7.17464 20.9999 7.61071 21H16.3893C16.8254 20.9999 17.245 20.8272 17.5628 20.517C17.8807 20.2067 18.0727 19.7823 18.1 19.3301L18.8571 6.75H19.4286C19.5801 6.75 19.7255 6.68745 19.8326 6.5761C19.9398 6.46475 20 6.31372 20 6.15625V5.5625C20 5.40503 19.9398 5.25401 19.8326 5.14266C19.7255 5.03131 19.5801 4.96875 19.4286 4.96875ZM10.2 3.78125H13.8L14.4857 4.96875H9.51429L10.2 3.78125ZM16.3893 19.2188H7.61107L6.86107 6.75H17.1396L16.3893 19.2188Z" fill="#111827"/>
</svg>
