<svg width="24" height="24" viewBox="0 0 24 24" fill="none" xmlns="http://www.w3.org/2000/svg">
<path d="M9.80009 12C9.80009 11.11 9.54204 10.24 9.05855 9.49993C8.57507 8.75991 7.88788 8.18314 7.08387 7.84254C6.27987 7.50195 5.39517 7.41283 4.54164 7.58647C3.68812 7.7601 2.9041 8.18868 2.28875 8.81802C1.67339 9.44736 1.25432 10.2492 1.08455 11.1221C0.914771 11.995 1.00191 12.8998 1.33494 13.7221C1.66796 14.5443 2.23193 15.2471 2.95551 15.7416C3.6791 16.2361 4.5298 16.5 5.40005 16.5C6.56701 16.5 7.68618 16.0259 8.51135 15.182C9.33652 14.3381 9.80009 13.1935 9.80009 12ZM4.66682 14.0626V12.7499H3.38325C3.35919 12.7499 3.33536 12.745 3.31313 12.7356C3.2909 12.7262 3.2707 12.7124 3.25369 12.695C3.23668 12.6776 3.22318 12.6569 3.21397 12.6342C3.20476 12.6115 3.20003 12.5871 3.20003 12.5625V11.4375C3.20003 11.3878 3.21933 11.3401 3.25369 11.305C3.28805 11.2699 3.33465 11.2501 3.38325 11.2501H4.66682V9.93738C4.66682 9.88769 4.68613 9.84002 4.72049 9.80488C4.75485 9.76974 4.80145 9.75 4.85004 9.75H5.95005C5.97412 9.75 5.99794 9.75485 6.02017 9.76426C6.0424 9.77368 6.0626 9.78748 6.07961 9.80488C6.09662 9.82228 6.11012 9.84294 6.11933 9.86567C6.12854 9.88841 6.13327 9.91278 6.13327 9.93738V11.2501H7.41685C7.46544 11.2501 7.51205 11.2699 7.54641 11.305C7.58077 11.3401 7.60007 11.3878 7.60007 11.4375V12.5625C7.60007 12.6122 7.58077 12.6599 7.54641 12.695C7.51205 12.7301 7.46544 12.7499 7.41685 12.7499H6.13327V14.0626C6.13327 14.1123 6.11397 14.16 6.07961 14.1951C6.04525 14.2303 5.99865 14.25 5.95005 14.25H4.85004C4.80145 14.25 4.75485 14.2303 4.72049 14.1951C4.68613 14.16 4.66682 14.1123 4.66682 14.0626ZM22.9817 18.9817L18.9628 3.41695C18.925 3.27324 18.8331 3.15069 18.7071 3.07617C18.5812 3.00164 18.4315 2.98121 18.2908 3.01934L17.758 3.16453C17.6349 3.19821 17.527 3.27457 17.4528 3.38057C17.3787 3.48656 17.3428 3.61561 17.3513 3.74566C16.957 4.00652 15.1437 4.50328 14.6752 4.47902C14.619 4.3621 14.5249 4.26874 14.409 4.21488C14.293 4.16102 14.1623 4.15001 14.0393 4.18371L13.6501 4.29023V4.125C13.6501 3.50379 13.1575 3 12.2751 3H4.02503C3.69262 3 3.20003 3.50379 3.20003 4.125V6.85172C3.71256 6.62109 4.27047 6.49172 4.85004 6.43195V4.6875H7.60007V6.85172C8.24312 7.13976 8.82649 7.55071 9.31884 8.0625H12.0001V15.9375H9.31884C8.82649 16.4493 8.24312 16.8602 7.60007 17.1483V19.3125H4.85004V17.568C4.27047 17.5083 3.71256 17.3782 3.20003 17.1483V19.875C3.20003 20.4962 3.69262 21 4.02503 21H12.2751C13.1575 21 13.6501 20.4962 13.6501 19.875V7.07602L17.1375 20.583C17.1562 20.6544 17.1885 20.7213 17.2325 20.7799C17.2765 20.8385 17.3313 20.8877 17.3939 20.9246C17.4564 20.9615 17.5255 20.9855 17.5971 20.9951C17.6687 21.0047 17.7415 20.9998 17.8113 20.9807L18.3427 20.8351C18.4658 20.8015 18.5736 20.7251 18.6478 20.6192C18.7219 20.5133 18.7578 20.3843 18.7494 20.2543C19.1437 19.9935 20.9566 19.4967 21.4255 19.521C21.4817 19.6379 21.5758 19.7313 21.6918 19.7851C21.8077 19.839 21.9384 19.85 22.0614 19.8163L22.5929 19.6707C22.7335 19.6316 22.8533 19.5372 22.9261 19.4081C22.9989 19.2791 23.0189 19.1258 22.9817 18.9817ZM12.0001 19.3125H9.25009V17.625H12.0001V19.3125ZM12.0001 6.375H9.25009V4.6875H12.0001V6.375ZM18.3939 18.8555L15.0506 5.87191C15.6267 5.80863 17.1385 5.40117 17.7064 5.14453L21.0498 18.1277C20.4736 18.1914 18.9618 18.5988 18.3939 18.8555Z" fill="#111827"/>
</svg>
