<svg width="24" height="24" viewBox="0 0 24 24" fill="none" xmlns="http://www.w3.org/2000/svg">
<path d="M19.5105 16.8326C19.3511 17.315 19.3511 18.7475 19.5105 19.2299C19.7875 19.2818 20 19.523 20 19.8125V20.4062C20 20.7328 19.7268 21 19.3929 21H6.03571C4.35848 21 3 19.6715 3 18.0312V4.96875C3 3.32852 4.35848 2 6.03571 2H19.3929C19.7268 2 20 2.26719 20 2.59375V16.25C20 16.5395 19.7913 16.777 19.5105 16.8326ZM17.9509 16.8438H6.03571C5.36786 16.8438 4.82143 17.3781 4.82143 18.0312C4.82143 18.6881 5.36406 19.2188 6.03571 19.2188H17.9509C17.8484 18.5768 17.8484 17.4857 17.9509 16.8438ZM18.1786 3.78125H6.03571C5.36406 3.78125 4.82143 4.31191 4.82143 4.96875V15.3111C5.1933 15.1516 5.60313 15.0625 6.03571 15.0625H18.1786V3.78125Z" fill="#111827"/>
</svg>
